<svg width="48" height="48" viewBox="0 0 48 48" fill="none" xmlns="http://www.w3.org/2000/svg">
<rect width="48" height="48" rx="10" fill="url(#paint0_linear_)"/>
<path d="M17.4483 35.9995V19.8061H12.3035V35.9995H17.4487H17.4483ZM14.8768 17.5955C16.6705 17.5955 17.7872 16.352 17.7872 14.798C17.7535 13.2087 16.6705 12 14.9109 12C13.15 12 12 13.2087 12 14.798C12 16.352 13.1163 17.5955 14.843 17.5955H14.8763H14.8768ZM20.2958 35.9995H25.4402V26.9574C25.4402 26.4739 25.4739 25.9895 25.6097 25.6443C25.9815 24.6768 26.828 23.6755 28.2495 23.6755C30.1107 23.6755 30.8556 25.1603 30.8556 27.3375V35.9995H36V26.7147C36 21.741 33.4622 19.4265 30.0774 19.4265C27.3023 19.4265 26.0835 21.0491 25.4065 22.1544H25.4406V19.8065H20.2963C20.3632 21.3257 20.2958 36 20.2958 36V35.9995Z" fill="white"/>
<defs>
<linearGradient id="paint0_linear_" x1="-9.82109e-07" y1="1.13858" x2="56.2864" y2="15.4815" gradientUnits="userSpaceOnUse">
<stop stop-color="#056A8A"/>
<stop offset="1" stop-color="#23A3FF"/>
</linearGradient>
</defs>
</svg>
